# xmcd CD database file
#
# Track frame offsets:
#	150
#	12704
#	24268
#	37199
#	50841
#	62123
#	73550
#	86937
#	98561
#	110542
#	122588
#	136188
#	148411
#	161232
#	173885
#	186363
#	198857
#	211368
#	222950
#	236095
#
# Disc length: 3319 seconds
#
# Revision: 0
# Processed by: cddbd v1.5PL3 Copyright (c) Steve Scherf et al.
# Submitted via: CDex 1.40Release
#
DISCID=360cf514
DTITLE=Sonny Terry and Brownie McGhee - My Skin Is Black, My Soul Is Blue CD2
DYEAR=2001
DGENRE=Blues
TTITLE0=Key To My Door
TTITLE1=Million Lonesome Woman
TTITLE2=Aint No Tellin´
TTITLE3=Try Me One More Time
TTITLE4=I Want To See Jesus
TTITLE5=Done What My Lord Said
TTITLE6=I Want King Jesus
TTITLE7=What Will I Do
TTITLE8=Key To The Highway 70 (1.)
TTITLE9=Key To The Highway 70 (2.)
TTITLE10=I Don´t Believe In Love
TTITLE11=So Much Trouble
TTITLE12=Good-By Now
TTITLE13=Jealous Of My Woman
TTITLE14=Unfair Blues
TTITLE15=Barbecue Any Old Time
TTITLE16=Workingman´s Blues
TTITLE17=Sinful Disposition Woman
TTITLE18=Back Home Blues
TTITLE19=It Must Be Love
EXTD=YEAR: 2001 ID3G: 0
EXTT0=
EXTT1=
EXTT2=
EXTT3=
EXTT4=
EXTT5=
EXTT6=
EXTT7=
EXTT8=
EXTT9=
EXTT10=
EXTT11=
EXTT12=
EXTT13=
EXTT14=
EXTT15=
EXTT16=
EXTT17=
EXTT18=
EXTT19=
PLAYORDER=
